<svg xmlns="http://www.w3.org/2000/svg" height="1000" width="1000"><path d="M768.65 478.559h17.463v21.058H768.65z"/><path d="M823.788 399.555l41.551-45.285c7.232-7.883 11.177-18.202 11.117-29.056-.092-14.99-7.595-28.436-20.09-35.987-10.698-6.437-23.452-7.48-35.002-2.868-1.871.746-3.636 1.666-5.341 2.662-1.95-5.856-5.12-11.261-9.451-15.817-7.663-8.063-17.89-12.495-28.827-12.495l-.264.003c-12.2.08-23.592 5.751-31.253 15.562a42.549 42.549 0 0 0-6.898 12.9 40.411 40.411 0 0 0-4.492-2.113c-11.554-4.572-24.3-3.482-34.964 2.992-12.432 7.54-20.104 21.499-20.015 36.434.063 10.714 4.045 20.883 11.208 28.62l41.618 45.129c-32.467 19.593-50.968 58.647-44.913 98.19l2.682 17.542 20.815-3.18-2.68-17.544c-5.35-34.954 13.51-69.345 44.88-81.924l.34-.133a68.08 68.08 0 0 1 17.252-4.327l.947-.096.52-.049a76.485 76.485 0 0 1 5.891-.276 70.548 70.548 0 0 1 5.466.173 85.24 85.24 0 0 0 1.778.145 68.124 68.124 0 0 1 17.079 4.008c26.819 10.07 45.29 36.172 47.047 65.792H795.46v21.058h52.957l-8.856 61.87h-61.827v21.058h58.816l-8.655 60.468h-50.161v21.059h47.145l-8.856 61.872h-37.197V747h34.183l-17.135 119.722c-1.149 8.128-7.536 14.065-15.19 14.114h-.098c-7.628 0-14.044-5.86-15.272-13.98L715.768 542.3l-20.815 3.178 49.541 324.543c2.806 18.503 17.963 31.87 36.09 31.868h.243c18.183-.124 33.284-13.676 35.902-32.212l53.264-372.154a96.618 96.618 0 0 0 1.041-14.947c-.215-34.688-18.695-66.38-47.246-83.021zm5.39-93.642c5.453-2.179 11.249-1.697 16.312 1.347 6.154 3.72 9.858 10.478 9.902 18.075.033 5.522-1.946 10.743-5.578 14.697l-46.588 50.776c-1.296-.367-2.585-.734-3.898-1.043l6.823-29.688 11.144-40.516c1.75-6.355 6.082-11.33 11.882-13.648zm-66.363-16.676c3.734-4.778 8.99-7.432 14.797-7.467l.124-.002c5.108 0 9.923 2.108 13.571 5.945 3.702 3.894 5.843 9.26 5.878 14.718a21.968 21.968 0 0 1-.574 5.16l-10.88 47.34-7.574 27.538-9.032-32.505-10.225-42.116c-1.605-6.59-.177-13.37 3.915-18.611zm-9.834 101.953l-46.455-50.372c-3.592-3.88-5.59-9.015-5.618-14.458-.047-7.681 3.645-14.525 9.879-18.304 2.992-1.816 6.242-2.735 9.523-2.735 2.262 0 4.541.44 6.771 1.317 5.805 2.298 10.155 7.263 11.924 13.615l9.769 35.15 8.416 34.652c-1.416.358-2.822.716-4.21 1.135zM335.52 570.594l.59-.087c-.03-.302-.063-.604-.089-.786a365.993 365.993 0 0 1-2.573-35.884c-.641-26.884 1.684-54.01 6.919-80.62l2.47-12.561h-12.8c-6.419 0-22.814 1.472-36.437 15.092-1.668 1.668-3.156 3.46-4.562 5.302-1.406-1.841-2.895-3.634-4.563-5.302-13.62-13.62-30.017-15.092-36.436-15.092h-12.8l2.47 12.56c5.234 26.616 7.562 53.739 6.919 80.633a366.393 366.393 0 0 1-2.579 35.926l-.14 1.198c-55.255 32.135-144.353 93.534-144.353 155.3 0 78.6 69.06 144.02 159.433 156.722 0 .092-.016.178-.016.267 0 17.68 14.383 32.063 32.065 32.063s32.067-14.383 32.067-32.063v-.002c39.531-4.991 73.934-19.362 100.697-42.363l-13.726-15.971c-12.464 10.711-26.908 19.287-42.961 25.684 29.638-30.519 48.788-78.368 48.788-132.104 0-32.905-11.297-63.419-27.414-89.124 39.288 29.776 72.982 64.96 72.982 96.892 0 29.774-11.573 58.135-33.465 82.022l15.525 14.231c25.514-27.837 38.998-61.123 38.998-96.253 0-62.017-89.805-123.653-145.008-155.68zm-46.475 293.613c-12.797 0-37.704-51.427-37.704-145.706 0-73.728 26.973-129.97 37.95-143.612 11.975 13.894 37.458 71.791 37.458 143.612 0 94.271-24.908 145.706-37.704 145.706zm-32.271-274.41a271.276 271.276 0 0 0-5.943 14.518c-7.675 20.387-20.55 62.33-20.55 114.186 0 52.576 8.135 105.526 23.921 137.238-40.146-20.142-68.959-74.046-68.959-137.238 0-55.665 40.14-104.18 71.53-128.704zm51.722-119.158a29.726 29.726 0 0 1 8.477-5.934c-3.59 23.087-5.124 46.44-4.572 69.619.18 8.016.641 16.068 1.324 24.102a631.238 631.238 0 0 0-14.151-7.36V492.18c-.002-8.14 3.166-15.789 8.922-21.542zm-47.384-5.934a29.726 29.726 0 0 1 8.477 5.934c5.754 5.753 8.924 13.404 8.924 21.542v58.884a646.291 646.291 0 0 0-14.151 7.361c.68-8.011 1.142-16.065 1.322-24.093.555-23.187-.98-46.539-4.572-69.628zM118.617 726.269c0-32.285 34.503-67.918 74.387-97.924-16.851 26.12-28.82 57.118-28.82 90.154 0 52.819 18.502 99.945 47.282 130.522-55.064-22.89-92.85-69.3-92.85-122.752zm170.425 168c-5.475 0-9.993-4.032-10.83-9.273 3.589.166 7.197.269 10.833.269 3.645 0 7.249-.087 10.826-.234-.856 5.227-5.367 9.238-10.829 9.238zm34.84-38.53c15.79-31.717 23.925-84.667 23.925-137.238 0-52.171-12.628-93.909-20.157-114.144a255.423 255.423 0 0 0-6.334-15.501c8.75 6.589 18.36 15.263 27.947 26.138 16.275 18.457 43.579 56.448 43.579 103.507.002 63.187-28.813 117.09-68.96 137.238z"/><path d="M705.829 142.607c9.523-26.138-4-55.155-30.151-64.687l-12.724-4.628-52.803 145.036V147.14c0-27.823-22.636-50.456-50.454-50.456H546.18v166.575l-20.773-80.923c-3.353-13.052-11.582-24.021-23.176-30.881-11.594-6.868-25.167-8.798-38.219-5.447l-13.11 3.364 93.507 364.313-15.651 286.196-.014.384c-.337 18.419 5.894 35.677 17.09 47.597-1.215 3.544-1.896 7.283-1.896 11.076 0 18.88 15.357 34.239 34.241 34.239 18.885 0 34.241-15.356 34.241-34.239 0-3.797-.683-7.546-1.9-11.095 11.108-11.823 17.334-28.942 17.1-47.237L614.238 545.27l-21.03 1.102 13.358 254.699c.122 12.946-4.34 25.258-11.952 32.97-3.395 3.44-9.006 7.537-16.442 7.537-7.466 0-13.093-4.134-16.495-7.595-7.64-7.775-12.07-20.155-11.875-33.15l17.373-317.716h22.73l1.352 25.649 21.028-1.114-2.123-40.228v-62.02zm-30.62-41.408c10.684 7.436 15.497 21.407 10.839 34.201L610.15 343.857v-63.973zm-86.117 45.945v314.921h-21.858v-343.34c12.567 3.338 21.858 14.815 21.858 28.419zm-97.591 22.436c6.757 3.999 11.554 10.39 13.503 17.996l41.174 160.38v87.939L476.77 165.474c5.134.03 10.193 1.418 14.73 4.106zm99.76 690.88c-.753 6.557-6.331 11.662-13.089 11.662-6.752 0-12.33-5.103-13.086-11.65 4.235 1.413 8.629 2.172 13.075 2.172 4.452 0 8.86-.756 13.1-2.184zM268.96 133.753c-34.433-10.728-72.074 5.744-87.545 38.329l-14.942 31.468a36.928 36.928 0 0 0-.47 30.659 36.904 36.904 0 0 0 22.843 20.447l6.725 2.097-11.617 37.278a17.84 17.84 0 0 0 1.24 13.686 17.842 17.842 0 0 0 10.555 8.8l27.942 8.708c1.774.553 3.566.817 5.333.817 7.649 0 14.757-4.932 17.15-12.614l11.618-37.278 6.727 2.096a37.038 37.038 0 0 0 29.603-3.358 37.024 37.024 0 0 0 17.493-24.118l6.912-32.051c8.006-37.133-13.3-73.662-49.567-84.966zm-41.967 170.44l-22.013-6.86 10.695-34.314 6.217 1.937 15.796 4.923zm70.948-89.917l-6.912 32.05c-.95 4.413-3.622 8.094-7.518 10.37-3.898 2.275-8.416 2.785-12.726 1.444l-23.848-7.433-.018-.01-17.212-5.363-34.592-10.784c-4.46-1.39-7.946-4.511-9.818-8.788-1.874-4.28-1.802-8.96.201-13.18l14.942-31.469c11.005-23.171 37.77-34.882 62.256-27.256 25.787 8.042 40.94 34.014 35.245 60.419z"/><g><path d="M443.146 283.885c-19.245-30.506-58.575-42.386-91.49-27.624l-31.786 14.257a36.92 36.92 0 0 0-20.245 23.026 36.924 36.924 0 0 0 4.119 30.383l3.755 5.957-33.027 20.832c-8.37 5.28-10.884 16.388-5.606 24.76l15.616 24.755a17.83 17.83 0 0 0 11.22 7.932 17.838 17.838 0 0 0 13.543-2.326l33.024-20.831 3.76 5.96a37.026 37.026 0 0 0 24.71 16.647 37.035 37.035 0 0 0 28.958-7.005l26.052-19.91c30.184-23.061 37.662-64.682 17.397-96.813zM300.639 386.372l-12.3-19.502 30.398-19.173 12.3 19.5zm112.325-22.404l-26.051 19.91c-3.585 2.74-8.005 3.807-12.448 3.011-4.441-.8-8.215-3.341-10.623-7.157l-13.335-21.138-.002-.005-4.441-7.04-24.507-38.856c-2.492-3.95-3.122-8.59-1.772-13.06 1.35-4.472 4.441-7.986 8.702-9.898l31.79-14.257c23.402-10.494 51.375-2.052 65.058 19.646 14.41 22.846 9.093 52.442-12.37 68.844z"/></g></svg>