<svg xmlns="http://www.w3.org/2000/svg" height="1000" width="1000"><path d="M441.265 249.463C390.26 327.863 332.64 416.652 332.64 575.34c9.446-.945 19.836-3.778 29.282-5.667 14.168-3.779 28.337-6.612 42.505-6.612 19.836 0 36.838 6.612 50.062 19.835 13.224 13.224 23.614 27.393 32.115 42.506 8.501-15.113 18.892-29.282 31.171-41.56 13.224-13.225 31.17-20.781 51.007-20.781 14.168 0 28.337 2.833 42.505 6.612l28.337 5.667c0-158.687-57.618-247.477-108.625-325.876-17.002-26.448-33.06-51.006-45.34-75.565-11.334 24.559-27.392 49.117-44.394 75.565z" fill="none"/><path d="M604.675 104h-61.397c-9.445 0-18.89-1.89-28.337-5.667l-5.667-2.834c0-4.723.945-9.446.945-14.169 0-6.612-5.668-12.279-12.28-12.279h-23.614c-6.612 0-12.28 5.667-12.28 12.28 0 22.669 3.779 43.45 11.335 63.285-12.279 31.171-31.17 60.453-51.95 92.568-50.063 77.454-112.404 172.856-112.404 339.1-9.446-.945-19.836-3.779-29.282-5.668-14.168-3.778-28.337-6.612-42.505-6.612-19.836 0-36.838 6.612-50.062 19.836-35.894 35.894-55.73 83.122-55.73 133.184s19.836 98.235 55.73 133.184c35.893 35.894 83.122 55.73 133.184 55.73s98.235-19.836 133.184-55.73c12.279-12.28 22.67-26.448 31.17-41.561 8.501 15.113 18.892 30.226 32.116 42.506 35.893 35.893 83.121 55.729 133.183 55.729 50.063 0 98.235-19.836 133.184-55.73 35.894-35.893 55.73-83.121 55.73-133.183s-19.836-98.235-55.73-133.184c-13.223-13.224-31.17-20.78-51.006-20.78-14.169 0-28.337 2.833-42.506 6.611l-28.337 5.668c0-166.244-62.341-261.646-112.403-339.1-20.78-32.115-40.617-62.341-51.951-92.568 2.833-7.556 4.722-16.057 6.612-24.558 11.334 5.667 24.558 8.5 37.782 8.5h49.118c4.723 177.58 114.292 283.37 294.705 283.37 6.612 0 12.28-5.667 12.28-12.279C900.324 214.514 789.81 104 604.674 104zM245.74 642.403c-19.836 19.836-30.226 46.284-30.226 74.621 0 6.612-5.668 12.28-12.28 12.28-6.612 0-12.28-5.668-12.28-12.28 0-34.004 13.225-67.064 37.784-91.623a11.972 11.972 0 0 1 17.002 0 11.972 11.972 0 0 1 0 17.002zm330.598.945c-19.836 19.836-31.17 46.284-31.17 74.62 0 6.613-5.668 12.28-12.28 12.28-6.612 0-12.28-5.667-12.28-12.28 0-34.948 13.225-67.064 37.783-91.622a11.972 11.972 0 0 1 17.003 0c4.723 4.722 5.667 12.279.944 17.002zm-44.394-393.885c51.006 78.4 108.625 167.189 108.625 325.876-9.446-.945-18.892-2.834-28.337-5.667-14.169-2.834-28.337-6.612-42.506-6.612-20.78 0-37.782 6.612-51.006 20.78-12.28 12.28-22.67 26.448-31.171 41.561-8.501-15.113-18.891-30.226-32.115-42.506-13.224-13.223-30.226-19.835-50.062-19.835-14.169 0-28.337 3.778-42.506 6.612-9.446 1.889-18.891 4.722-29.281 5.667 0-158.687 57.618-247.477 108.625-325.876 17.002-26.448 33.06-51.006 45.339-75.565 11.335 24.559 27.392 49.117 44.395 75.565z"/></svg>