<svg xmlns="http://www.w3.org/2000/svg" height="1000" width="1000"><path d="M459.796 606.703c13.148-7.888 20.16-22.789 17.53-38.566l-14.024-70.997-48.208 53.467c-10.518 11.394-12.271 28.048-4.382 42.072 10.518 18.407 32.43 24.543 49.084 14.024zM540.435 606.703c17.53 9.642 39.443 4.383 49.085-13.147 7.888-13.148 6.135-30.678-4.383-42.073l-48.208-53.467-14.024 70.998c-3.506 14.9 3.506 30.677 17.53 37.69z"/><path d="M634.222 257.852A441.012 441.012 0 0 0 527.287 271l-5.259.877v-4.383c0-51.714 28.925-99.046 75.38-121.835l-19.283-39.443c-36.813 18.407-65.738 48.208-82.392 84.145-36.813-53.467-98.169-85.898-163.03-85.898-21.914 0-43.826 3.506-64.863 11.395l-27.171 9.641 15.777 23.666c36.813 54.344 98.169 87.651 163.907 87.651 21.036 0 42.073-3.506 63.109-10.518-3.506 14.024-5.26 28.048-5.26 42.949v4.383l-5.258-2.63a441.012 441.012 0 0 0-106.934-13.148c-131.477 0-238.411 106.058-238.411 236.658 0 130.6 53.467 257.694 147.254 348.851 33.307 32.431 77.132 49.961 123.587 49.961 14.025 0 28.925-1.753 42.073-5.259l58.726-14.9 58.726 14.9c14.025 3.506 28.049 5.26 42.073 5.26 46.455 0 91.157-18.407 123.588-50.838l1.753-1.753c93.786-92.91 145.5-215.622 145.5-347.098 1.754-129.724-105.18-235.782-236.657-235.782zm62.232 551.325l-1.753 1.753c-24.542 24.543-57.85 38.567-92.91 38.567-10.518 0-21.913-.877-31.555-3.506l-69.244-17.53-69.244 17.53c-10.518 2.63-21.036 3.506-32.431 3.506-35.06 0-67.491-13.148-92.91-37.69-85.898-83.269-134.983-198.968-134.983-318.173 0-106.058 87.651-191.956 194.586-191.956 32.43 0 64.861 4.382 96.416 11.394l37.69 9.642 37.69-9.642c31.554-7.888 63.985-11.394 96.416-11.394 106.934 0 194.585 85.898 194.585 191.956 0 119.205-47.332 231.398-132.353 315.543z"/></svg>