<svg xmlns="http://www.w3.org/2000/svg" height="1000" width="1000"><path d="M888.678 423.618c-41.687-106.021-133.277-113.436-200.317-102.514a265.352 265.352 0 0 0-59.123-40.083 140.292 140.292 0 0 1 66.038-23.048l40.083-1.303-35.374-17.637a120.852 120.852 0 0 0-50.104-10.02 164.041 164.041 0 0 0-97.202 34.17l20.042-150.312-4.71-3.507a73.653 73.653 0 0 0-40.084-13.228 55.516 55.516 0 0 0-36.476 13.628l-3.607 3.007v138.087a84.175 84.175 0 0 0-36.075 10.02c-31.766-15.431-74.155-30.863-115.44-30.863a138.689 138.689 0 0 0-33.17 3.808l-34.572 8.517 33.971 10.723a733.527 733.527 0 0 1 70.146 27.557 116.743 116.743 0 0 0-42.188 27.958 203.123 203.123 0 0 0-205.127 95.198c-74.855 117.946-53.41 250.522-25.352 295.816l1.703 2.806c79.866 127.766 208.935 193.403 384.1 194.906h6.914c174.664 0 300.626-58.121 374.38-173.461a340.71 340.71 0 0 0 21.544-300.225zm-225.47-97.303c-10.02 2.405-18.538 5.01-26.154 7.516a260.542 260.542 0 0 0-55.916-15.132 337.503 337.503 0 0 1 30.063-24.952v1.303a201.119 201.119 0 0 1 52.008 31.265zM487.945 271v10.02a289.92 289.92 0 0 0-13.027-7.615A51.708 51.708 0 0 1 487.944 271zm4.209 36.376l15.833 11.123v-196.71a34.672 34.672 0 0 1 20.041-6.213 51.106 51.106 0 0 1 23.249 6.314L524.92 313.088l20.042-18.74c40.083-36.676 77.36-44.993 102.212-45.394a311.749 311.749 0 0 0-98.004 72.752l-17.937 20.041 26.956-3.808c30.063-4.208 79.165 17.537 80.167 17.938a243.707 243.707 0 0 1 40.084 19.14 375.782 375.782 0 0 0-107.825-14.731c-16.835 0-27.457 1.002-27.858 1.002l-8.117.802-10.02 93.294c-18.94-23.75-26.857-67.34-28.36-84.977l-1.403-12.125-11.724 3.407c-66.538 19.34-130.271 71.85-162.438 102.112 28.359-112.534 142.797-124.86 148.008-125.36l20.042-2.005-13.93-14.93c-28.358-30.063-80.868-54.815-119.348-70.147 67.741 7.917 135.983 55.516 136.685 56.017zm-46.096 14.93a230.262 230.262 0 0 0-22.347 6.815 206.93 206.93 0 0 0-65.536-17.837c25.052-18.74 43.39-15.833 47.198-15.031a284.292 284.292 0 0 1 40.685 26.054zm403.84 391.315c-70.146 110.23-192.7 165.044-363.857 163.54-167.85-1.402-291.206-63.932-366.763-185.586l-1.804-2.805c-20.042-31.566-50.104-155.324 25.252-274.472a180.375 180.375 0 0 1 189.294-85.377l5.612 1.302.802-.801a271.365 271.365 0 0 1 59.624 10.822A180.977 180.977 0 0 0 295.644 491.76l-2.906 30.062 20.041-21.745c.802-.902 80.167-85.378 164.643-115.14 3.808 24.852 15.933 80.167 49.503 100.209l13.328 7.816 12.426-112.634c26.355-1.303 112.133-2.105 169.352 36.476l24.551 16.634-9.42-28.058c0-1.403-11.724-32.368-70.746-60.125 67.14-17.337 162.438-20.042 203.724 84.876a320.066 320.066 0 0 1-20.243 283.49z"/></svg>