<?xml version="1.0" encoding="utf-8"?><svg xmlns="http://www.w3.org/2000/svg" xmlns:xlink="http://www.w3.org/1999/xlink"><symbol viewBox="0 0 1000 1000" id="accueil" xmlns="http://www.w3.org/2000/svg"><path d="M768.65 478.559h17.463v21.058H768.65z"/><path d="M823.788 399.555l41.551-45.285c7.232-7.883 11.177-18.202 11.117-29.056-.092-14.99-7.595-28.436-20.09-35.987-10.698-6.437-23.452-7.48-35.002-2.868-1.871.746-3.636 1.666-5.341 2.662-1.95-5.856-5.12-11.261-9.451-15.817-7.663-8.063-17.89-12.495-28.827-12.495l-.264.003c-12.2.08-23.592 5.751-31.253 15.562a42.549 42.549 0 0 0-6.898 12.9 40.411 40.411 0 0 0-4.492-2.113c-11.554-4.572-24.3-3.482-34.964 2.992-12.432 7.54-20.104 21.499-20.015 36.434.063 10.714 4.045 20.883 11.208 28.62l41.618 45.129c-32.467 19.593-50.968 58.647-44.913 98.19l2.682 17.542 20.815-3.18-2.68-17.544c-5.35-34.954 13.51-69.345 44.88-81.924l.34-.133a68.08 68.08 0 0 1 17.252-4.327l.947-.096.52-.049a76.485 76.485 0 0 1 5.891-.276 70.548 70.548 0 0 1 5.466.173 85.24 85.24 0 0 0 1.778.145 68.124 68.124 0 0 1 17.079 4.008c26.819 10.07 45.29 36.172 47.047 65.792H795.46v21.058h52.957l-8.856 61.87h-61.827v21.058h58.816l-8.655 60.468h-50.161v21.059h47.145l-8.856 61.872h-37.197V747h34.183l-17.135 119.722c-1.149 8.128-7.536 14.065-15.19 14.114h-.098c-7.628 0-14.044-5.86-15.272-13.98L715.768 542.3l-20.815 3.178 49.541 324.543c2.806 18.503 17.963 31.87 36.09 31.868h.243c18.183-.124 33.284-13.676 35.902-32.212l53.264-372.154a96.618 96.618 0 0 0 1.041-14.947c-.215-34.688-18.695-66.38-47.246-83.021zm5.39-93.642c5.453-2.179 11.249-1.697 16.312 1.347 6.154 3.72 9.858 10.478 9.902 18.075.033 5.522-1.946 10.743-5.578 14.697l-46.588 50.776c-1.296-.367-2.585-.734-3.898-1.043l6.823-29.688 11.144-40.516c1.75-6.355 6.082-11.33 11.882-13.648zm-66.363-16.676c3.734-4.778 8.99-7.432 14.797-7.467l.124-.002c5.108 0 9.923 2.108 13.571 5.945 3.702 3.894 5.843 9.26 5.878 14.718a21.968 21.968 0 0 1-.574 5.16l-10.88 47.34-7.574 27.538-9.032-32.505-10.225-42.116c-1.605-6.59-.177-13.37 3.915-18.611zm-9.834 101.953l-46.455-50.372c-3.592-3.88-5.59-9.015-5.618-14.458-.047-7.681 3.645-14.525 9.879-18.304 2.992-1.816 6.242-2.735 9.523-2.735 2.262 0 4.541.44 6.771 1.317 5.805 2.298 10.155 7.263 11.924 13.615l9.769 35.15 8.416 34.652c-1.416.358-2.822.716-4.21 1.135zM335.52 570.594l.59-.087c-.03-.302-.063-.604-.089-.786a365.993 365.993 0 0 1-2.573-35.884c-.641-26.884 1.684-54.01 6.919-80.62l2.47-12.561h-12.8c-6.419 0-22.814 1.472-36.437 15.092-1.668 1.668-3.156 3.46-4.562 5.302-1.406-1.841-2.895-3.634-4.563-5.302-13.62-13.62-30.017-15.092-36.436-15.092h-12.8l2.47 12.56c5.234 26.616 7.562 53.739 6.919 80.633a366.393 366.393 0 0 1-2.579 35.926l-.14 1.198c-55.255 32.135-144.353 93.534-144.353 155.3 0 78.6 69.06 144.02 159.433 156.722 0 .092-.016.178-.016.267 0 17.68 14.383 32.063 32.065 32.063s32.067-14.383 32.067-32.063v-.002c39.531-4.991 73.934-19.362 100.697-42.363l-13.726-15.971c-12.464 10.711-26.908 19.287-42.961 25.684 29.638-30.519 48.788-78.368 48.788-132.104 0-32.905-11.297-63.419-27.414-89.124 39.288 29.776 72.982 64.96 72.982 96.892 0 29.774-11.573 58.135-33.465 82.022l15.525 14.231c25.514-27.837 38.998-61.123 38.998-96.253 0-62.017-89.805-123.653-145.008-155.68zm-46.475 293.613c-12.797 0-37.704-51.427-37.704-145.706 0-73.728 26.973-129.97 37.95-143.612 11.975 13.894 37.458 71.791 37.458 143.612 0 94.271-24.908 145.706-37.704 145.706zm-32.271-274.41a271.276 271.276 0 0 0-5.943 14.518c-7.675 20.387-20.55 62.33-20.55 114.186 0 52.576 8.135 105.526 23.921 137.238-40.146-20.142-68.959-74.046-68.959-137.238 0-55.665 40.14-104.18 71.53-128.704zm51.722-119.158a29.726 29.726 0 0 1 8.477-5.934c-3.59 23.087-5.124 46.44-4.572 69.619.18 8.016.641 16.068 1.324 24.102a631.238 631.238 0 0 0-14.151-7.36V492.18c-.002-8.14 3.166-15.789 8.922-21.542zm-47.384-5.934a29.726 29.726 0 0 1 8.477 5.934c5.754 5.753 8.924 13.404 8.924 21.542v58.884a646.291 646.291 0 0 0-14.151 7.361c.68-8.011 1.142-16.065 1.322-24.093.555-23.187-.98-46.539-4.572-69.628zM118.617 726.269c0-32.285 34.503-67.918 74.387-97.924-16.851 26.12-28.82 57.118-28.82 90.154 0 52.819 18.502 99.945 47.282 130.522-55.064-22.89-92.85-69.3-92.85-122.752zm170.425 168c-5.475 0-9.993-4.032-10.83-9.273 3.589.166 7.197.269 10.833.269 3.645 0 7.249-.087 10.826-.234-.856 5.227-5.367 9.238-10.829 9.238zm34.84-38.53c15.79-31.717 23.925-84.667 23.925-137.238 0-52.171-12.628-93.909-20.157-114.144a255.423 255.423 0 0 0-6.334-15.501c8.75 6.589 18.36 15.263 27.947 26.138 16.275 18.457 43.579 56.448 43.579 103.507.002 63.187-28.813 117.09-68.96 137.238z"/><path d="M705.829 142.607c9.523-26.138-4-55.155-30.151-64.687l-12.724-4.628-52.803 145.036V147.14c0-27.823-22.636-50.456-50.454-50.456H546.18v166.575l-20.773-80.923c-3.353-13.052-11.582-24.021-23.176-30.881-11.594-6.868-25.167-8.798-38.219-5.447l-13.11 3.364 93.507 364.313-15.651 286.196-.014.384c-.337 18.419 5.894 35.677 17.09 47.597-1.215 3.544-1.896 7.283-1.896 11.076 0 18.88 15.357 34.239 34.241 34.239 18.885 0 34.241-15.356 34.241-34.239 0-3.797-.683-7.546-1.9-11.095 11.108-11.823 17.334-28.942 17.1-47.237L614.238 545.27l-21.03 1.102 13.358 254.699c.122 12.946-4.34 25.258-11.952 32.97-3.395 3.44-9.006 7.537-16.442 7.537-7.466 0-13.093-4.134-16.495-7.595-7.64-7.775-12.07-20.155-11.875-33.15l17.373-317.716h22.73l1.352 25.649 21.028-1.114-2.123-40.228v-62.02zm-30.62-41.408c10.684 7.436 15.497 21.407 10.839 34.201L610.15 343.857v-63.973zm-86.117 45.945v314.921h-21.858v-343.34c12.567 3.338 21.858 14.815 21.858 28.419zm-97.591 22.436c6.757 3.999 11.554 10.39 13.503 17.996l41.174 160.38v87.939L476.77 165.474c5.134.03 10.193 1.418 14.73 4.106zm99.76 690.88c-.753 6.557-6.331 11.662-13.089 11.662-6.752 0-12.33-5.103-13.086-11.65 4.235 1.413 8.629 2.172 13.075 2.172 4.452 0 8.86-.756 13.1-2.184zM268.96 133.753c-34.433-10.728-72.074 5.744-87.545 38.329l-14.942 31.468a36.928 36.928 0 0 0-.47 30.659 36.904 36.904 0 0 0 22.843 20.447l6.725 2.097-11.617 37.278a17.84 17.84 0 0 0 1.24 13.686 17.842 17.842 0 0 0 10.555 8.8l27.942 8.708c1.774.553 3.566.817 5.333.817 7.649 0 14.757-4.932 17.15-12.614l11.618-37.278 6.727 2.096a37.038 37.038 0 0 0 29.603-3.358 37.024 37.024 0 0 0 17.493-24.118l6.912-32.051c8.006-37.133-13.3-73.662-49.567-84.966zm-41.967 170.44l-22.013-6.86 10.695-34.314 6.217 1.937 15.796 4.923zm70.948-89.917l-6.912 32.05c-.95 4.413-3.622 8.094-7.518 10.37-3.898 2.275-8.416 2.785-12.726 1.444l-23.848-7.433-.018-.01-17.212-5.363-34.592-10.784c-4.46-1.39-7.946-4.511-9.818-8.788-1.874-4.28-1.802-8.96.201-13.18l14.942-31.469c11.005-23.171 37.77-34.882 62.256-27.256 25.787 8.042 40.94 34.014 35.245 60.419zM443.146 283.885c-19.245-30.506-58.575-42.386-91.49-27.624l-31.786 14.257a36.92 36.92 0 0 0-20.245 23.026 36.924 36.924 0 0 0 4.119 30.383l3.755 5.957-33.027 20.832c-8.37 5.28-10.884 16.388-5.606 24.76l15.616 24.755a17.83 17.83 0 0 0 11.22 7.932 17.838 17.838 0 0 0 13.543-2.326l33.024-20.831 3.76 5.96a37.026 37.026 0 0 0 24.71 16.647 37.035 37.035 0 0 0 28.958-7.005l26.052-19.91c30.184-23.061 37.662-64.682 17.397-96.813zM300.639 386.372l-12.3-19.502 30.398-19.173 12.3 19.5zm112.325-22.404l-26.051 19.91c-3.585 2.74-8.005 3.807-12.448 3.011-4.441-.8-8.215-3.341-10.623-7.157l-13.335-21.138-.002-.005-4.441-7.04-24.507-38.856c-2.492-3.95-3.122-8.59-1.772-13.06 1.35-4.472 4.441-7.986 8.702-9.898l31.79-14.257c23.402-10.494 51.375-2.052 65.058 19.646 14.41 22.846 9.093 52.442-12.37 68.844z"/></symbol><symbol viewBox="0 0 1000 1000" id="cerise" xmlns="http://www.w3.org/2000/svg"><path d="M441.265 249.463C390.26 327.863 332.64 416.652 332.64 575.34c9.446-.945 19.836-3.778 29.282-5.667 14.168-3.779 28.337-6.612 42.505-6.612 19.836 0 36.838 6.612 50.062 19.835 13.224 13.224 23.614 27.393 32.115 42.506 8.501-15.113 18.892-29.282 31.171-41.56 13.224-13.225 31.17-20.781 51.007-20.781 14.168 0 28.337 2.833 42.505 6.612l28.337 5.667c0-158.687-57.618-247.477-108.625-325.876-17.002-26.448-33.06-51.006-45.34-75.565-11.334 24.559-27.392 49.117-44.394 75.565z" fill="none"/><path d="M604.675 104h-61.397c-9.445 0-18.89-1.89-28.337-5.667l-5.667-2.834c0-4.723.945-9.446.945-14.169 0-6.612-5.668-12.279-12.28-12.279h-23.614c-6.612 0-12.28 5.667-12.28 12.28 0 22.669 3.779 43.45 11.335 63.285-12.279 31.171-31.17 60.453-51.95 92.568-50.063 77.454-112.404 172.856-112.404 339.1-9.446-.945-19.836-3.779-29.282-5.668-14.168-3.778-28.337-6.612-42.505-6.612-19.836 0-36.838 6.612-50.062 19.836-35.894 35.894-55.73 83.122-55.73 133.184s19.836 98.235 55.73 133.184c35.893 35.894 83.122 55.73 133.184 55.73s98.235-19.836 133.184-55.73c12.279-12.28 22.67-26.448 31.17-41.561 8.501 15.113 18.892 30.226 32.116 42.506 35.893 35.893 83.121 55.729 133.183 55.729 50.063 0 98.235-19.836 133.184-55.73 35.894-35.893 55.73-83.121 55.73-133.183s-19.836-98.235-55.73-133.184c-13.223-13.224-31.17-20.78-51.006-20.78-14.169 0-28.337 2.833-42.506 6.611l-28.337 5.668c0-166.244-62.341-261.646-112.403-339.1-20.78-32.115-40.617-62.341-51.951-92.568 2.833-7.556 4.722-16.057 6.612-24.558 11.334 5.667 24.558 8.5 37.782 8.5h49.118c4.723 177.58 114.292 283.37 294.705 283.37 6.612 0 12.28-5.667 12.28-12.279C900.324 214.514 789.81 104 604.674 104zM245.74 642.403c-19.836 19.836-30.226 46.284-30.226 74.621 0 6.612-5.668 12.28-12.28 12.28-6.612 0-12.28-5.668-12.28-12.28 0-34.004 13.225-67.064 37.784-91.623a11.972 11.972 0 0 1 17.002 0 11.972 11.972 0 0 1 0 17.002zm330.598.945c-19.836 19.836-31.17 46.284-31.17 74.62 0 6.613-5.668 12.28-12.28 12.28-6.612 0-12.28-5.667-12.28-12.28 0-34.948 13.225-67.064 37.783-91.622a11.972 11.972 0 0 1 17.003 0c4.723 4.722 5.667 12.279.944 17.002zm-44.394-393.885c51.006 78.4 108.625 167.189 108.625 325.876-9.446-.945-18.892-2.834-28.337-5.667-14.169-2.834-28.337-6.612-42.506-6.612-20.78 0-37.782 6.612-51.006 20.78-12.28 12.28-22.67 26.448-31.171 41.561-8.501-15.113-18.891-30.226-32.115-42.506-13.224-13.223-30.226-19.835-50.062-19.835-14.169 0-28.337 3.778-42.506 6.612-9.446 1.889-18.891 4.722-29.281 5.667 0-158.687 57.618-247.477 108.625-325.876 17.002-26.448 33.06-51.006 45.339-75.565 11.335 24.559 27.392 49.117 44.395 75.565z"/></symbol><symbol viewBox="0 0 1000 1000" id="pomme" xmlns="http://www.w3.org/2000/svg"><path d="M459.796 606.703c13.148-7.888 20.16-22.789 17.53-38.566l-14.024-70.997-48.208 53.467c-10.518 11.394-12.271 28.048-4.382 42.072 10.518 18.407 32.43 24.543 49.084 14.024zm80.639 0c17.53 9.642 39.443 4.383 49.085-13.147 7.888-13.148 6.135-30.678-4.383-42.073l-48.208-53.467-14.024 70.998c-3.506 14.9 3.506 30.677 17.53 37.69z"/><path d="M634.222 257.852A441.012 441.012 0 0 0 527.287 271l-5.259.877v-4.383c0-51.714 28.925-99.046 75.38-121.835l-19.283-39.443c-36.813 18.407-65.738 48.208-82.392 84.145-36.813-53.467-98.169-85.898-163.03-85.898-21.914 0-43.826 3.506-64.863 11.395l-27.171 9.641 15.777 23.666c36.813 54.344 98.169 87.651 163.907 87.651 21.036 0 42.073-3.506 63.109-10.518-3.506 14.024-5.26 28.048-5.26 42.949v4.383l-5.258-2.63a441.012 441.012 0 0 0-106.934-13.148c-131.477 0-238.411 106.058-238.411 236.658 0 130.6 53.467 257.694 147.254 348.851 33.307 32.431 77.132 49.961 123.587 49.961 14.025 0 28.925-1.753 42.073-5.259l58.726-14.9 58.726 14.9c14.025 3.506 28.049 5.26 42.073 5.26 46.455 0 91.157-18.407 123.588-50.838l1.753-1.753c93.786-92.91 145.5-215.622 145.5-347.098 1.754-129.724-105.18-235.782-236.657-235.782zm62.232 551.325l-1.753 1.753c-24.542 24.543-57.85 38.567-92.91 38.567-10.518 0-21.913-.877-31.555-3.506l-69.244-17.53-69.244 17.53c-10.518 2.63-21.036 3.506-32.431 3.506-35.06 0-67.491-13.148-92.91-37.69-85.898-83.269-134.983-198.968-134.983-318.173 0-106.058 87.651-191.956 194.586-191.956 32.43 0 64.861 4.382 96.416 11.394l37.69 9.642 37.69-9.642c31.554-7.888 63.985-11.394 96.416-11.394 106.934 0 194.585 85.898 194.585 191.956 0 119.205-47.332 231.398-132.353 315.543z"/></symbol><symbol viewBox="0 0 1000 1000" id="tomate" xmlns="http://www.w3.org/2000/svg"><path d="M888.678 423.618c-41.687-106.021-133.277-113.436-200.317-102.514a265.352 265.352 0 0 0-59.123-40.083 140.292 140.292 0 0 1 66.038-23.048l40.083-1.303-35.374-17.637a120.852 120.852 0 0 0-50.104-10.02 164.041 164.041 0 0 0-97.202 34.17l20.042-150.312-4.71-3.507a73.653 73.653 0 0 0-40.084-13.228 55.516 55.516 0 0 0-36.476 13.628l-3.607 3.007v138.087a84.175 84.175 0 0 0-36.075 10.02c-31.766-15.431-74.155-30.863-115.44-30.863a138.689 138.689 0 0 0-33.17 3.808l-34.572 8.517 33.971 10.723a733.527 733.527 0 0 1 70.146 27.557 116.743 116.743 0 0 0-42.188 27.958 203.123 203.123 0 0 0-205.127 95.198c-74.855 117.946-53.41 250.522-25.352 295.816l1.703 2.806c79.866 127.766 208.935 193.403 384.1 194.906h6.914c174.664 0 300.626-58.121 374.38-173.461a340.71 340.71 0 0 0 21.544-300.225zm-225.47-97.303c-10.02 2.405-18.538 5.01-26.154 7.516a260.542 260.542 0 0 0-55.916-15.132 337.503 337.503 0 0 1 30.063-24.952v1.303a201.119 201.119 0 0 1 52.008 31.265zM487.945 271v10.02a289.92 289.92 0 0 0-13.027-7.615A51.708 51.708 0 0 1 487.944 271zm4.209 36.376l15.833 11.123v-196.71a34.672 34.672 0 0 1 20.041-6.213 51.106 51.106 0 0 1 23.249 6.314L524.92 313.088l20.042-18.74c40.083-36.676 77.36-44.993 102.212-45.394a311.749 311.749 0 0 0-98.004 72.752l-17.937 20.041 26.956-3.808c30.063-4.208 79.165 17.537 80.167 17.938a243.707 243.707 0 0 1 40.084 19.14 375.782 375.782 0 0 0-107.825-14.731c-16.835 0-27.457 1.002-27.858 1.002l-8.117.802-10.02 93.294c-18.94-23.75-26.857-67.34-28.36-84.977l-1.403-12.125-11.724 3.407c-66.538 19.34-130.271 71.85-162.438 102.112 28.359-112.534 142.797-124.86 148.008-125.36l20.042-2.005-13.93-14.93c-28.358-30.063-80.868-54.815-119.348-70.147 67.741 7.917 135.983 55.516 136.685 56.017zm-46.096 14.93a230.262 230.262 0 0 0-22.347 6.815 206.93 206.93 0 0 0-65.536-17.837c25.052-18.74 43.39-15.833 47.198-15.031a284.292 284.292 0 0 1 40.685 26.054zm403.84 391.315c-70.146 110.23-192.7 165.044-363.857 163.54-167.85-1.402-291.206-63.932-366.763-185.586l-1.804-2.805c-20.042-31.566-50.104-155.324 25.252-274.472a180.375 180.375 0 0 1 189.294-85.377l5.612 1.302.802-.801a271.365 271.365 0 0 1 59.624 10.822A180.977 180.977 0 0 0 295.644 491.76l-2.906 30.062 20.041-21.745c.802-.902 80.167-85.378 164.643-115.14 3.808 24.852 15.933 80.167 49.503 100.209l13.328 7.816 12.426-112.634c26.355-1.303 112.133-2.105 169.352 36.476l24.551 16.634-9.42-28.058c0-1.403-11.724-32.368-70.746-60.125 67.14-17.337 162.438-20.042 203.724 84.876a320.066 320.066 0 0 1-20.243 283.49z"/></symbol></svg>